<svg width="50" height="50" viewBox="0 0 50 50" fill="none" xmlns="http://www.w3.org/2000/svg">
<g id="Group 188">
<path id="Vector" d="M30.0336 43.3077C30.757 42.8687 31.2828 42.1421 31.4954 41.2876C31.708 40.4331 31.59 39.5208 31.1673 38.7514L29.5737 35.8501C29.151 35.0806 28.4583 34.5171 27.6479 34.2834C26.8376 34.0496 25.976 34.165 25.2526 34.6039C19.7978 37.914 16.6105 32.1115 15.0168 29.2102C13.4231 26.309 10.2358 20.5065 15.6906 17.1963C16.4139 16.7574 16.9398 16.0307 17.1524 15.1762C17.365 14.3218 17.247 13.4094 16.8243 12.64L15.2306 9.73872C14.808 8.96926 14.1153 8.40568 13.3049 8.17198C12.4946 7.93827 11.6329 8.05357 10.9096 8.49252C4.09109 12.6302 1.59367 18.0141 9.56202 32.5204C17.5304 47.0267 23.2151 47.4454 30.0336 43.3077Z" stroke="#1F2B6C" stroke-width="2" stroke-linecap="round" stroke-linejoin="round"/>
<path id="Vector_2" d="M44.549 31.3266C45.9978 25.4916 45.1906 19.263 42.3047 14.0093C39.4188 8.75556 34.6903 4.90647 29.1582 3.30768M36.1986 28.9184C36.6302 27.1854 36.7338 25.3759 36.5034 23.5934C36.273 21.8108 35.7132 20.0901 34.8559 18.5294C33.9987 16.9688 32.8607 15.5988 31.5072 14.4979C30.1536 13.3969 28.6109 12.5864 26.9673 12.1128M27.893 26.4925C28.1827 25.3249 28.021 24.0787 27.4436 23.0275C26.8662 21.9762 25.9201 21.206 24.8133 20.8858" stroke="#159EEC" stroke-width="2" stroke-linecap="round" stroke-linejoin="round"/>
</g>
</svg>
