<svg width="53" height="40" viewBox="0 0 53 40" fill="none" xmlns="http://www.w3.org/2000/svg">
<g id="15.-Cash">
<path id="Layer-1" d="M51.5 1.77075H1.5V31.7708H51.5V1.77075Z" stroke="#FCFEFE" stroke-width="2" stroke-linecap="round" stroke-linejoin="round"/>
<path id="Layer-2" d="M49.4166 31.979H3.58331V35.104H49.4166V31.979Z" stroke="#FCFEFE" stroke-width="2" stroke-linecap="round" stroke-linejoin="round"/>
<path id="Layer-3" d="M47.3334 35.104H5.66669V38.229H47.3334V35.104Z" stroke="#FCFEFE" stroke-width="2" stroke-linecap="round" stroke-linejoin="round"/>
<path id="Layer-4" d="M26.2489 28.0594C30.6888 28.0594 34.2881 23.1072 34.2881 16.9984C34.2881 10.8897 30.6888 5.9375 26.2489 5.9375C21.8089 5.9375 18.2097 10.8897 18.2097 16.9984C18.2097 23.1072 21.8089 28.0594 26.2489 28.0594Z" stroke="#FCFEFE" stroke-width="2" stroke-linecap="round" stroke-linejoin="round"/>
<path id="Layer-5" fill-rule="evenodd" clip-rule="evenodd" d="M10.4844 28.0594H42.5156C42.5156 25.005 44.9057 22.5289 47.8541 22.5289V11.468C44.9057 11.468 42.5156 8.9919 42.5156 5.9375H10.4844C10.4844 8.9919 8.09421 11.468 5.14581 11.468V22.5289C8.09421 22.5289 10.4844 25.005 10.4844 28.0594Z" stroke="#FCFEFE" stroke-width="2" stroke-linecap="round" stroke-linejoin="round"/>
<path id="Layer-6" d="M12.6827 18.5785C13.5152 18.5785 14.1901 17.871 14.1901 16.9983C14.1901 16.1257 13.5152 15.4182 12.6827 15.4182C11.8502 15.4182 11.1754 16.1257 11.1754 16.9983C11.1754 17.871 11.8502 18.5785 12.6827 18.5785Z" stroke="#FCFEFE" stroke-width="2" stroke-linecap="round" stroke-linejoin="round"/>
<path id="Layer-7" d="M39.3126 18.5785C40.1451 18.5785 40.8199 17.871 40.8199 16.9983C40.8199 16.1257 40.1451 15.4182 39.3126 15.4182C38.4801 15.4182 37.8052 16.1257 37.8052 16.9983C37.8052 17.871 38.4801 18.5785 39.3126 18.5785Z" stroke="#FCFEFE" stroke-width="2" stroke-linecap="round" stroke-linejoin="round"/>
</g>
</svg>
