<svg width="52" height="52" viewBox="0 0 52 52" fill="none" xmlns="http://www.w3.org/2000/svg">
<g id="39.-Calendar">
<path id="Layer-1" d="M49.4375 1H2.5625C1.69956 1 1 1.69956 1 2.5625V49.4375C1 50.3004 1.69956 51 2.5625 51H49.4375C50.3004 51 51 50.3004 51 49.4375V2.5625C51 1.69956 50.3004 1 49.4375 1Z" stroke="#BFD2F8" stroke-width="2" stroke-linecap="round" stroke-linejoin="round"/>
<path id="Layer-2" d="M15.9999 16H5.99991V26H15.9999V16Z" stroke="#BFD2F8" stroke-width="2" stroke-linecap="round" stroke-linejoin="round"/>
<path id="Layer-3" d="M25.9997 16H15.9997V26H25.9997V16Z" stroke="#BFD2F8" stroke-width="2" stroke-linecap="round" stroke-linejoin="round"/>
<path id="Layer-4" d="M36 16H26V26H36V16Z" stroke="#BFD2F8" stroke-width="2" stroke-linecap="round" stroke-linejoin="round"/>
<path id="Layer-5" d="M46.0003 16H36.0003V26H46.0003V16Z" stroke="#BFD2F8" stroke-width="2" stroke-linecap="round" stroke-linejoin="round"/>
<path id="Layer-6" d="M46.0003 26H36.0003V36H46.0003V26Z" stroke="#BFD2F8" stroke-width="2" stroke-linecap="round" stroke-linejoin="round"/>
<path id="Layer-7" d="M36 26H26V36H36V26Z" stroke="#BFD2F8" stroke-width="2" stroke-linecap="round" stroke-linejoin="round"/>
<path id="Layer-8" d="M25.9997 26H15.9997V36H25.9997V26Z" stroke="#BFD2F8" stroke-width="2" stroke-linecap="round" stroke-linejoin="round"/>
<path id="Layer-9" d="M15.9999 26H5.99991V36H15.9999V26Z" stroke="#BFD2F8" stroke-width="2" stroke-linecap="round" stroke-linejoin="round"/>
<path id="Layer-10" d="M15.9999 36H5.99991V46H15.9999V36Z" stroke="#BFD2F8" stroke-width="2" stroke-linecap="round" stroke-linejoin="round"/>
<path id="Layer-11" d="M25.9997 36H15.9997V46H25.9997V36Z" stroke="#BFD2F8" stroke-width="2" stroke-linecap="round" stroke-linejoin="round"/>
<path id="Layer-12" d="M36 36H26V46H36V36Z" stroke="#BFD2F8" stroke-width="2" stroke-linecap="round" stroke-linejoin="round"/>
<path id="Layer-13" fill-rule="evenodd" clip-rule="evenodd" d="M11.0003 1H16.0003V3.5C16.0003 4.88071 14.8782 6 13.5003 6C12.1196 6 11.0003 4.8779 11.0003 3.5V1Z" stroke="#BFD2F8" stroke-width="2" stroke-linecap="round" stroke-linejoin="round"/>
<path id="Layer-14" fill-rule="evenodd" clip-rule="evenodd" d="M36.0003 1H41.0003V3.5C41.0003 4.88071 39.8782 6 38.5003 6C37.1196 6 36.0003 4.8779 36.0003 3.5V1Z" stroke="#BFD2F8" stroke-width="2" stroke-linecap="round" stroke-linejoin="round"/>
</g>
</svg>
